<svg xmlns="http://www.w3.org/2000/svg" xmlns:xlink="http://www.w3.org/1999/xlink" width="150" zoomAndPan="magnify" viewBox="0 0 113.04 120.96" height="150" preserveAspectRatio="xMidYMid meet" version="1.0"><defs><clipPath id="3a607ac679"><path d="M 3 12 L 83 12 L 83 110.554688 L 3 110.554688 Z M 3 12 " clip-rule="nonzero"/></clipPath><clipPath id="7a6439c0a3"><path d="M 3 12 L 83 12 L 83 110.554688 L 3 110.554688 Z M 3 12 " clip-rule="nonzero"/></clipPath><clipPath id="3673a3078c"><path d="M 26 0.488281 L 60 0.488281 L 60 24 L 26 24 Z M 26 0.488281 " clip-rule="nonzero"/></clipPath></defs><path fill="#27ff97" d="M 7.570312 13.472656 L 77.925781 13.472656 C 78.410156 13.472656 78.878906 13.566406 79.328125 13.75 C 79.777344 13.9375 80.171875 14.203125 80.519531 14.542969 C 80.863281 14.886719 81.125 15.285156 81.3125 15.734375 C 81.5 16.183594 81.589844 16.648438 81.589844 17.136719 L 81.589844 105.988281 C 81.589844 106.476562 81.5 106.941406 81.3125 107.390625 C 81.125 107.839844 80.863281 108.234375 80.519531 108.578125 C 80.171875 108.921875 79.777344 109.1875 79.328125 109.375 C 78.878906 109.558594 78.410156 109.652344 77.925781 109.652344 L 7.570312 109.652344 C 7.082031 109.652344 6.617188 109.558594 6.167969 109.375 C 5.71875 109.1875 5.320312 108.921875 4.976562 108.578125 C 4.632812 108.234375 4.367188 107.839844 4.183594 107.390625 C 3.996094 106.941406 3.902344 106.476562 3.902344 105.988281 L 3.902344 17.136719 C 3.902344 16.648438 3.996094 16.183594 4.183594 15.734375 C 4.367188 15.285156 4.632812 14.886719 4.976562 14.542969 C 5.320312 14.203125 5.71875 13.9375 6.167969 13.75 C 6.617188 13.566406 7.082031 13.472656 7.570312 13.472656 Z M 7.570312 13.472656 " fill-opacity="1" fill-rule="nonzero"/><g clip-path="url(#3a607ac679)"><path fill="#000000" d="M 77.925781 110.554688 L 7.570312 110.554688 C 7.269531 110.554688 6.972656 110.523438 6.679688 110.464844 C 6.386719 110.40625 6.101562 110.320312 5.824219 110.207031 C 5.546875 110.089844 5.28125 109.949219 5.03125 109.785156 C 4.785156 109.617188 4.554688 109.429688 4.339844 109.214844 C 4.128906 109.003906 3.941406 108.773438 3.773438 108.523438 C 3.605469 108.273438 3.464844 108.011719 3.351562 107.734375 C 3.234375 107.457031 3.148438 107.171875 3.089844 106.878906 C 3.03125 106.585938 3 106.289062 3 105.988281 L 3 17.136719 C 3 16.835938 3.03125 16.539062 3.089844 16.246094 C 3.148438 15.953125 3.234375 15.664062 3.351562 15.390625 C 3.464844 15.113281 3.605469 14.847656 3.773438 14.601562 C 3.941406 14.351562 4.128906 14.121094 4.339844 13.910156 C 4.554688 13.695312 4.785156 13.507812 5.03125 13.339844 C 5.28125 13.171875 5.546875 13.03125 5.824219 12.917969 C 6.101562 12.804688 6.386719 12.714844 6.679688 12.65625 C 6.972656 12.597656 7.269531 12.570312 7.570312 12.570312 L 77.925781 12.570312 C 78.222656 12.570312 78.523438 12.597656 78.816406 12.65625 C 79.109375 12.714844 79.394531 12.804688 79.671875 12.917969 C 79.949219 13.03125 80.210938 13.171875 80.460938 13.339844 C 80.710938 13.507812 80.941406 13.695312 81.15625 13.910156 C 81.367188 14.121094 81.554688 14.351562 81.722656 14.601562 C 81.890625 14.847656 82.03125 15.113281 82.144531 15.390625 C 82.261719 15.664062 82.347656 15.953125 82.40625 16.246094 C 82.464844 16.539062 82.492188 16.835938 82.496094 17.136719 L 82.496094 105.988281 C 82.492188 106.289062 82.464844 106.585938 82.40625 106.878906 C 82.347656 107.171875 82.261719 107.457031 82.144531 107.734375 C 82.03125 108.011719 81.890625 108.273438 81.722656 108.523438 C 81.554688 108.773438 81.367188 109.003906 81.15625 109.214844 C 80.941406 109.425781 80.710938 109.617188 80.460938 109.785156 C 80.210938 109.949219 79.949219 110.089844 79.671875 110.207031 C 79.394531 110.320312 79.109375 110.40625 78.816406 110.464844 C 78.523438 110.523438 78.222656 110.554688 77.925781 110.554688 Z M 7.570312 14.375 C 7.203125 14.375 6.851562 14.445312 6.511719 14.585938 C 6.175781 14.726562 5.875 14.925781 5.617188 15.183594 C 5.359375 15.441406 5.160156 15.742188 5.019531 16.078125 C 4.878906 16.417969 4.808594 16.769531 4.808594 17.136719 L 4.808594 105.988281 C 4.808594 106.355469 4.878906 106.707031 5.019531 107.042969 C 5.160156 107.382812 5.359375 107.679688 5.617188 107.941406 C 5.875 108.199219 6.175781 108.398438 6.511719 108.539062 C 6.851562 108.679688 7.203125 108.75 7.570312 108.75 L 77.925781 108.75 C 78.289062 108.75 78.644531 108.679688 78.980469 108.539062 C 79.320312 108.398438 79.617188 108.199219 79.878906 107.941406 C 80.136719 107.679688 80.335938 107.382812 80.476562 107.042969 C 80.617188 106.707031 80.6875 106.355469 80.6875 105.988281 L 80.6875 17.136719 C 80.6875 16.769531 80.617188 16.417969 80.476562 16.078125 C 80.335938 15.742188 80.136719 15.441406 79.878906 15.183594 C 79.617188 14.925781 79.320312 14.726562 78.980469 14.585938 C 78.644531 14.445312 78.289062 14.375 77.925781 14.375 Z M 7.570312 14.375 " fill-opacity="1" fill-rule="nonzero"/></g><path fill="#e0e0e0" d="M 7.570312 13.472656 L 77.925781 13.472656 C 78.410156 13.472656 78.878906 13.566406 79.328125 13.75 C 79.777344 13.9375 80.171875 14.203125 80.519531 14.542969 C 80.863281 14.886719 81.125 15.285156 81.3125 15.734375 C 81.5 16.183594 81.589844 16.648438 81.589844 17.136719 L 81.589844 105.988281 C 81.589844 106.476562 81.5 106.941406 81.3125 107.390625 C 81.125 107.839844 80.863281 108.234375 80.519531 108.578125 C 80.171875 108.921875 79.777344 109.1875 79.328125 109.375 C 78.878906 109.558594 78.410156 109.652344 77.925781 109.652344 L 7.570312 109.652344 C 7.082031 109.652344 6.617188 109.558594 6.167969 109.375 C 5.71875 109.1875 5.320312 108.921875 4.976562 108.578125 C 4.632812 108.234375 4.367188 107.839844 4.183594 107.390625 C 3.996094 106.941406 3.902344 106.476562 3.902344 105.988281 L 3.902344 17.136719 C 3.902344 16.648438 3.996094 16.183594 4.183594 15.734375 C 4.367188 15.285156 4.632812 14.886719 4.976562 14.542969 C 5.320312 14.203125 5.71875 13.9375 6.167969 13.75 C 6.617188 13.566406 7.082031 13.472656 7.570312 13.472656 Z M 7.570312 13.472656 " fill-opacity="1" fill-rule="nonzero"/><g clip-path="url(#7a6439c0a3)"><path fill="#000000" d="M 77.925781 110.554688 L 7.570312 110.554688 C 7.269531 110.554688 6.972656 110.523438 6.679688 110.464844 C 6.386719 110.40625 6.101562 110.320312 5.824219 110.207031 C 5.546875 110.089844 5.28125 109.949219 5.03125 109.785156 C 4.785156 109.617188 4.554688 109.429688 4.339844 109.214844 C 4.128906 109.003906 3.941406 108.773438 3.773438 108.523438 C 3.605469 108.273438 3.464844 108.011719 3.351562 107.734375 C 3.234375 107.457031 3.148438 107.171875 3.089844 106.878906 C 3.03125 106.585938 3 106.289062 3 105.988281 L 3 17.136719 C 3 16.835938 3.03125 16.539062 3.089844 16.246094 C 3.148438 15.953125 3.234375 15.664062 3.351562 15.390625 C 3.464844 15.113281 3.605469 14.847656 3.773438 14.601562 C 3.941406 14.351562 4.128906 14.121094 4.339844 13.910156 C 4.554688 13.695312 4.785156 13.507812 5.03125 13.339844 C 5.28125 13.171875 5.546875 13.03125 5.824219 12.917969 C 6.101562 12.804688 6.386719 12.714844 6.679688 12.65625 C 6.972656 12.597656 7.269531 12.570312 7.570312 12.570312 L 77.925781 12.570312 C 78.222656 12.570312 78.523438 12.597656 78.816406 12.65625 C 79.109375 12.714844 79.394531 12.804688 79.671875 12.917969 C 79.949219 13.03125 80.210938 13.171875 80.460938 13.339844 C 80.710938 13.507812 80.941406 13.695312 81.15625 13.910156 C 81.367188 14.121094 81.554688 14.351562 81.722656 14.601562 C 81.890625 14.847656 82.03125 15.113281 82.144531 15.390625 C 82.261719 15.664062 82.347656 15.953125 82.40625 16.246094 C 82.464844 16.539062 82.492188 16.835938 82.496094 17.136719 L 82.496094 105.988281 C 82.492188 106.289062 82.464844 106.585938 82.40625 106.878906 C 82.347656 107.171875 82.261719 107.457031 82.144531 107.734375 C 82.03125 108.011719 81.890625 108.273438 81.722656 108.523438 C 81.554688 108.773438 81.367188 109.003906 81.15625 109.214844 C 80.941406 109.425781 80.710938 109.617188 80.460938 109.785156 C 80.210938 109.949219 79.949219 110.089844 79.671875 110.207031 C 79.394531 110.320312 79.109375 110.40625 78.816406 110.464844 C 78.523438 110.523438 78.222656 110.554688 77.925781 110.554688 Z M 7.570312 14.375 C 7.203125 14.375 6.851562 14.445312 6.511719 14.585938 C 6.175781 14.726562 5.875 14.925781 5.617188 15.183594 C 5.359375 15.441406 5.160156 15.742188 5.019531 16.078125 C 4.878906 16.417969 4.808594 16.769531 4.808594 17.136719 L 4.808594 105.988281 C 4.808594 106.355469 4.878906 106.707031 5.019531 107.042969 C 5.160156 107.382812 5.359375 107.679688 5.617188 107.941406 C 5.875 108.199219 6.175781 108.398438 6.511719 108.539062 C 6.851562 108.679688 7.203125 108.75 7.570312 108.75 L 77.925781 108.75 C 78.289062 108.75 78.644531 108.679688 78.980469 108.539062 C 79.320312 108.398438 79.617188 108.199219 79.878906 107.941406 C 80.136719 107.679688 80.335938 107.382812 80.476562 107.042969 C 80.617188 106.707031 80.6875 106.355469 80.6875 105.988281 L 80.6875 17.136719 C 80.6875 16.769531 80.617188 16.417969 80.476562 16.078125 C 80.335938 15.742188 80.136719 15.441406 79.878906 15.183594 C 79.617188 14.925781 79.320312 14.726562 78.980469 14.585938 C 78.644531 14.445312 78.289062 14.375 77.925781 14.375 Z M 7.570312 14.375 " fill-opacity="1" fill-rule="nonzero"/></g><path fill="#ffffff" d="M 76.089844 22.632812 L 76.089844 100.492188 C 76.089844 100.980469 76 101.445312 75.8125 101.894531 C 75.625 102.34375 75.359375 102.738281 75.015625 103.082031 C 74.671875 103.425781 74.277344 103.691406 73.828125 103.878906 C 73.378906 104.0625 72.910156 104.15625 72.425781 104.15625 L 13.070312 104.15625 C 12.582031 104.15625 12.117188 104.0625 11.667969 103.878906 C 11.21875 103.691406 10.820312 103.425781 10.476562 103.082031 C 10.132812 102.738281 9.867188 102.34375 9.683594 101.894531 C 9.496094 101.445312 9.402344 100.980469 9.402344 100.492188 L 9.402344 22.632812 C 9.402344 22.144531 9.496094 21.679688 9.683594 21.230469 C 9.867188 20.78125 10.132812 20.382812 10.476562 20.039062 C 10.820312 19.695312 11.21875 19.433594 11.667969 19.246094 C 12.117188 19.0625 12.582031 18.96875 13.070312 18.96875 L 72.425781 18.96875 C 72.910156 18.96875 73.378906 19.0625 73.828125 19.246094 C 74.277344 19.433594 74.671875 19.695312 75.015625 20.039062 C 75.359375 20.382812 75.625 20.78125 75.8125 21.230469 C 76 21.679688 76.089844 22.144531 76.089844 22.632812 Z M 76.089844 22.632812 " fill-opacity="1" fill-rule="nonzero"/><path fill="#000000" d="M 72.425781 105.058594 L 13.070312 105.058594 C 12.769531 105.058594 12.472656 105.027344 12.179688 104.96875 C 11.886719 104.910156 11.601562 104.824219 11.324219 104.710938 C 11.046875 104.59375 10.78125 104.453125 10.53125 104.289062 C 10.285156 104.121094 10.054688 103.933594 9.839844 103.71875 C 9.628906 103.507812 9.4375 103.277344 9.273438 103.027344 C 9.105469 102.777344 8.964844 102.515625 8.851562 102.238281 C 8.734375 101.960938 8.648438 101.675781 8.589844 101.382812 C 8.53125 101.089844 8.5 100.792969 8.5 100.492188 L 8.5 22.632812 C 8.5 22.332031 8.53125 22.035156 8.589844 21.742188 C 8.648438 21.445312 8.734375 21.160156 8.851562 20.886719 C 8.964844 20.609375 9.105469 20.34375 9.273438 20.097656 C 9.4375 19.847656 9.628906 19.617188 9.839844 19.40625 C 10.054688 19.191406 10.285156 19.003906 10.53125 18.835938 C 10.78125 18.671875 11.046875 18.53125 11.324219 18.414062 C 11.601562 18.300781 11.886719 18.210938 12.179688 18.152344 C 12.472656 18.09375 12.769531 18.066406 13.070312 18.066406 L 72.425781 18.066406 C 72.726562 18.066406 73.023438 18.09375 73.316406 18.152344 C 73.609375 18.214844 73.894531 18.300781 74.171875 18.414062 C 74.449219 18.53125 74.710938 18.671875 74.960938 18.835938 C 75.210938 19.003906 75.441406 19.191406 75.652344 19.40625 C 75.867188 19.617188 76.054688 19.847656 76.222656 20.097656 C 76.390625 20.34375 76.53125 20.609375 76.644531 20.886719 C 76.757812 21.160156 76.847656 21.445312 76.90625 21.742188 C 76.964844 22.035156 76.992188 22.332031 76.992188 22.632812 L 76.992188 100.492188 C 76.992188 100.792969 76.964844 101.089844 76.90625 101.382812 C 76.847656 101.675781 76.757812 101.960938 76.644531 102.238281 C 76.53125 102.515625 76.390625 102.777344 76.222656 103.027344 C 76.054688 103.277344 75.867188 103.507812 75.652344 103.71875 C 75.441406 103.933594 75.210938 104.121094 74.960938 104.289062 C 74.710938 104.453125 74.449219 104.59375 74.171875 104.710938 C 73.894531 104.824219 73.609375 104.910156 73.316406 104.96875 C 73.023438 105.027344 72.726562 105.058594 72.425781 105.058594 Z M 13.070312 19.871094 C 12.703125 19.871094 12.351562 19.941406 12.011719 20.082031 C 11.675781 20.222656 11.375 20.421875 11.117188 20.679688 C 10.859375 20.9375 10.660156 21.238281 10.519531 21.574219 C 10.378906 21.914062 10.308594 22.265625 10.304688 22.632812 L 10.304688 100.492188 C 10.308594 100.859375 10.378906 101.210938 10.519531 101.550781 C 10.660156 101.886719 10.859375 102.1875 11.117188 102.445312 C 11.375 102.703125 11.675781 102.902344 12.011719 103.042969 C 12.351562 103.183594 12.703125 103.253906 13.070312 103.253906 L 72.425781 103.253906 C 72.792969 103.253906 73.144531 103.183594 73.480469 103.042969 C 73.820312 102.902344 74.117188 102.703125 74.378906 102.445312 C 74.636719 102.1875 74.835938 101.886719 74.976562 101.550781 C 75.117188 101.210938 75.1875 100.859375 75.1875 100.492188 L 75.1875 22.632812 C 75.1875 22.265625 75.117188 21.914062 74.976562 21.574219 C 74.835938 21.238281 74.636719 20.9375 74.378906 20.679688 C 74.117188 20.421875 73.820312 20.222656 73.480469 20.082031 C 73.144531 19.941406 72.792969 19.871094 72.425781 19.871094 Z M 13.070312 19.871094 " fill-opacity="1" fill-rule="nonzero"/><path fill="#bdbdbd" d="M 56.726562 9.75 L 51.113281 9.75 C 51.113281 9.199219 51.0625 8.65625 50.957031 8.117188 C 50.851562 7.574219 50.691406 7.050781 50.484375 6.542969 C 50.273438 6.035156 50.015625 5.550781 49.710938 5.09375 C 49.40625 4.636719 49.0625 4.210938 48.671875 3.820312 C 48.285156 3.433594 47.859375 3.085938 47.402344 2.777344 C 46.945312 2.472656 46.464844 2.214844 45.953125 2.003906 C 45.445312 1.792969 44.921875 1.632812 44.382812 1.523438 C 43.84375 1.417969 43.296875 1.363281 42.746094 1.363281 C 42.195312 1.363281 41.652344 1.417969 41.113281 1.523438 C 40.574219 1.632812 40.046875 1.792969 39.539062 2.003906 C 39.03125 2.214844 38.550781 2.472656 38.09375 2.777344 C 37.632812 3.085938 37.210938 3.433594 36.824219 3.820312 C 36.433594 4.210938 36.089844 4.636719 35.78125 5.09375 C 35.476562 5.550781 35.222656 6.035156 35.011719 6.542969 C 34.800781 7.050781 34.644531 7.574219 34.539062 8.117188 C 34.433594 8.65625 34.382812 9.199219 34.382812 9.75 L 28.769531 9.75 C 28.523438 9.75 28.292969 9.796875 28.066406 9.890625 C 27.84375 9.984375 27.644531 10.113281 27.472656 10.285156 C 27.300781 10.457031 27.167969 10.65625 27.074219 10.882812 C 26.980469 11.105469 26.933594 11.339844 26.933594 11.582031 L 26.933594 21.125 C 26.933594 21.367188 26.980469 21.601562 27.074219 21.824219 C 27.167969 22.050781 27.300781 22.246094 27.472656 22.417969 C 27.644531 22.589844 27.84375 22.722656 28.066406 22.816406 C 28.292969 22.910156 28.523438 22.957031 28.769531 22.957031 L 56.726562 22.957031 C 56.96875 22.957031 57.203125 22.910156 57.429688 22.816406 C 57.652344 22.722656 57.851562 22.589844 58.023438 22.417969 C 58.195312 22.246094 58.328125 22.050781 58.421875 21.824219 C 58.511719 21.601562 58.558594 21.367188 58.558594 21.125 L 58.558594 11.582031 C 58.558594 11.339844 58.511719 11.105469 58.421875 10.882812 C 58.328125 10.65625 58.195312 10.457031 58.023438 10.285156 C 57.851562 10.113281 57.652344 9.984375 57.429688 9.890625 C 57.203125 9.796875 56.96875 9.75 56.726562 9.75 Z M 42.746094 13.234375 C 42.285156 13.234375 41.839844 13.144531 41.414062 12.96875 C 40.988281 12.792969 40.609375 12.539062 40.28125 12.214844 C 39.957031 11.886719 39.703125 11.507812 39.527344 11.082031 C 39.351562 10.65625 39.261719 10.210938 39.261719 9.75 C 39.261719 9.289062 39.351562 8.84375 39.527344 8.417969 C 39.703125 7.992188 39.957031 7.613281 40.28125 7.289062 C 40.609375 6.960938 40.988281 6.710938 41.414062 6.53125 C 41.839844 6.355469 42.285156 6.265625 42.746094 6.265625 C 43.210938 6.265625 43.65625 6.355469 44.082031 6.53125 C 44.507812 6.710938 44.886719 6.960938 45.210938 7.289062 C 45.539062 7.613281 45.789062 7.992188 45.96875 8.417969 C 46.144531 8.84375 46.234375 9.289062 46.234375 9.75 C 46.234375 10.210938 46.144531 10.65625 45.96875 11.082031 C 45.789062 11.507812 45.539062 11.886719 45.210938 12.214844 C 44.886719 12.539062 44.507812 12.792969 44.082031 12.96875 C 43.65625 13.144531 43.210938 13.234375 42.746094 13.234375 Z M 42.746094 13.234375 " fill-opacity="1" fill-rule="nonzero"/><g clip-path="url(#3673a3078c)"><path fill="#000000" d="M 56.726562 23.859375 L 28.769531 23.859375 C 28.40625 23.859375 28.058594 23.789062 27.722656 23.648438 C 27.386719 23.511719 27.089844 23.3125 26.835938 23.058594 C 26.578125 22.800781 26.378906 22.503906 26.242188 22.171875 C 26.101562 21.835938 26.03125 21.488281 26.03125 21.125 L 26.03125 11.582031 C 26.03125 11.21875 26.101562 10.871094 26.242188 10.535156 C 26.378906 10.203125 26.578125 9.90625 26.835938 9.648438 C 27.089844 9.394531 27.386719 9.195312 27.722656 9.058594 C 28.058594 8.917969 28.40625 8.847656 28.769531 8.847656 L 33.523438 8.847656 C 33.578125 8.28125 33.6875 7.722656 33.84375 7.175781 C 34.003906 6.628906 34.210938 6.101562 34.46875 5.589844 C 34.722656 5.082031 35.023438 4.597656 35.371094 4.144531 C 35.714844 3.691406 36.097656 3.273438 36.523438 2.890625 C 36.945312 2.507812 37.398438 2.167969 37.882812 1.867188 C 38.371094 1.566406 38.878906 1.316406 39.410156 1.109375 C 39.941406 0.90625 40.488281 0.75 41.050781 0.644531 C 41.613281 0.542969 42.175781 0.488281 42.746094 0.488281 C 43.316406 0.488281 43.882812 0.542969 44.445312 0.644531 C 45.003906 0.75 45.550781 0.90625 46.085938 1.109375 C 46.617188 1.316406 47.125 1.566406 47.609375 1.867188 C 48.097656 2.167969 48.550781 2.507812 48.972656 2.890625 C 49.394531 3.273438 49.78125 3.691406 50.125 4.144531 C 50.472656 4.597656 50.773438 5.082031 51.027344 5.589844 C 51.285156 6.101562 51.492188 6.628906 51.648438 7.175781 C 51.808594 7.722656 51.914062 8.28125 51.972656 8.847656 L 56.726562 8.847656 C 57.089844 8.847656 57.4375 8.917969 57.773438 9.058594 C 58.109375 9.195312 58.402344 9.394531 58.660156 9.648438 C 58.917969 9.90625 59.113281 10.203125 59.253906 10.535156 C 59.394531 10.871094 59.460938 11.21875 59.464844 11.582031 L 59.464844 21.125 C 59.460938 21.488281 59.394531 21.835938 59.253906 22.171875 C 59.113281 22.503906 58.917969 22.800781 58.660156 23.058594 C 58.40625 23.3125 58.109375 23.511719 57.773438 23.648438 C 57.4375 23.789062 57.089844 23.859375 56.726562 23.859375 Z M 28.769531 10.652344 C 28.511719 10.652344 28.292969 10.742188 28.109375 10.925781 C 27.929688 11.105469 27.839844 11.324219 27.835938 11.582031 L 27.835938 21.125 C 27.839844 21.378906 27.929688 21.601562 28.109375 21.78125 C 28.292969 21.960938 28.511719 22.054688 28.769531 22.054688 L 56.726562 22.054688 C 56.984375 22.054688 57.203125 21.960938 57.382812 21.78125 C 57.566406 21.601562 57.65625 21.378906 57.65625 21.125 L 57.65625 11.582031 C 57.65625 11.324219 57.566406 11.105469 57.382812 10.925781 C 57.203125 10.742188 56.984375 10.652344 56.726562 10.652344 L 51.113281 10.652344 C 50.863281 10.652344 50.648438 10.566406 50.472656 10.386719 C 50.296875 10.210938 50.210938 10 50.210938 9.75 C 50.210938 9.261719 50.160156 8.777344 50.066406 8.296875 C 49.96875 7.816406 49.828125 7.351562 49.640625 6.898438 C 49.453125 6.445312 49.222656 6.015625 48.949219 5.609375 C 48.679688 5.203125 48.367188 4.828125 48.023438 4.480469 C 47.675781 4.136719 47.300781 3.828125 46.890625 3.554688 C 46.484375 3.28125 46.054688 3.054688 45.601562 2.867188 C 45.148438 2.679688 44.683594 2.539062 44.203125 2.441406 C 43.722656 2.347656 43.238281 2.300781 42.746094 2.300781 C 42.257812 2.300781 41.773438 2.347656 41.292969 2.441406 C 40.8125 2.539062 40.347656 2.679688 39.894531 2.867188 C 39.441406 3.054688 39.011719 3.28125 38.605469 3.554688 C 38.195312 3.828125 37.820312 4.136719 37.472656 4.480469 C 37.125 4.828125 36.816406 5.203125 36.546875 5.609375 C 36.273438 6.015625 36.042969 6.445312 35.855469 6.898438 C 35.667969 7.351562 35.527344 7.816406 35.429688 8.296875 C 35.335938 8.777344 35.285156 9.261719 35.285156 9.75 C 35.285156 10 35.199219 10.210938 35.019531 10.386719 C 34.84375 10.566406 34.632812 10.652344 34.382812 10.652344 Z M 28.769531 10.652344 " fill-opacity="1" fill-rule="nonzero"/></g><path fill="#000000" d="M 42.746094 14.136719 C 42.460938 14.136719 42.175781 14.105469 41.890625 14.050781 C 41.609375 13.996094 41.335938 13.910156 41.070312 13.800781 C 40.800781 13.691406 40.550781 13.554688 40.308594 13.394531 C 40.070312 13.238281 39.847656 13.054688 39.644531 12.851562 C 39.441406 12.648438 39.257812 12.425781 39.097656 12.1875 C 38.9375 11.945312 38.804688 11.695312 38.695312 11.429688 C 38.582031 11.164062 38.5 10.886719 38.445312 10.605469 C 38.386719 10.324219 38.359375 10.039062 38.359375 9.75 C 38.359375 9.460938 38.386719 9.175781 38.445312 8.894531 C 38.5 8.613281 38.582031 8.339844 38.695312 8.074219 C 38.804688 7.804688 38.9375 7.554688 39.097656 7.3125 C 39.257812 7.074219 39.441406 6.851562 39.644531 6.648438 C 39.847656 6.445312 40.070312 6.265625 40.308594 6.105469 C 40.550781 5.945312 40.800781 5.808594 41.070312 5.699219 C 41.335938 5.589844 41.609375 5.507812 41.890625 5.449219 C 42.175781 5.394531 42.460938 5.367188 42.746094 5.367188 C 43.035156 5.367188 43.320312 5.394531 43.605469 5.449219 C 43.886719 5.507812 44.160156 5.589844 44.425781 5.699219 C 44.691406 5.808594 44.945312 5.945312 45.183594 6.105469 C 45.425781 6.265625 45.648438 6.445312 45.851562 6.648438 C 46.054688 6.851562 46.234375 7.074219 46.394531 7.3125 C 46.554688 7.554688 46.691406 7.804688 46.800781 8.074219 C 46.910156 8.339844 46.996094 8.613281 47.050781 8.894531 C 47.109375 9.175781 47.136719 9.460938 47.136719 9.75 C 47.136719 10.039062 47.105469 10.324219 47.050781 10.605469 C 46.996094 10.886719 46.910156 11.160156 46.800781 11.425781 C 46.691406 11.695312 46.554688 11.945312 46.394531 12.183594 C 46.234375 12.425781 46.050781 12.644531 45.847656 12.847656 C 45.644531 13.054688 45.425781 13.234375 45.183594 13.394531 C 44.945312 13.554688 44.691406 13.691406 44.425781 13.800781 C 44.160156 13.910156 43.886719 13.992188 43.601562 14.050781 C 43.320312 14.105469 43.035156 14.136719 42.746094 14.136719 Z M 42.746094 7.167969 C 42.40625 7.167969 42.074219 7.234375 41.757812 7.367188 C 41.441406 7.496094 41.164062 7.683594 40.921875 7.925781 C 40.679688 8.167969 40.492188 8.445312 40.363281 8.761719 C 40.230469 9.078125 40.164062 9.410156 40.164062 9.75 C 40.164062 10.09375 40.230469 10.421875 40.363281 10.738281 C 40.492188 11.054688 40.679688 11.332031 40.921875 11.574219 C 41.164062 11.816406 41.441406 12.003906 41.757812 12.132812 C 42.074219 12.265625 42.40625 12.332031 42.746094 12.332031 C 43.089844 12.332031 43.417969 12.265625 43.734375 12.132812 C 44.050781 12.003906 44.332031 11.816406 44.574219 11.574219 C 44.816406 11.332031 45.003906 11.054688 45.132812 10.738281 C 45.265625 10.421875 45.328125 10.09375 45.328125 9.75 C 45.328125 9.410156 45.265625 9.078125 45.132812 8.761719 C 45 8.449219 44.816406 8.167969 44.574219 7.925781 C 44.332031 7.683594 44.050781 7.5 43.734375 7.367188 C 43.417969 7.234375 43.089844 7.171875 42.746094 7.167969 Z M 42.746094 7.167969 " fill-opacity="1" fill-rule="nonzero"/><path fill="#9ccc65" d="M 15.601562 34.464844 L 27.898438 34.464844 L 27.898438 46.753906 L 15.601562 46.753906 Z M 15.601562 34.464844 " fill-opacity="1" fill-rule="nonzero"/><path fill="#000000" d="M 27.898438 47.65625 L 15.601562 47.65625 C 15.351562 47.65625 15.140625 47.566406 14.960938 47.390625 C 14.785156 47.214844 14.699219 47.003906 14.699219 46.753906 L 14.699219 34.464844 C 14.699219 34.214844 14.785156 34 14.960938 33.824219 C 15.140625 33.648438 15.351562 33.5625 15.601562 33.5625 L 27.898438 33.5625 C 28.148438 33.5625 28.363281 33.648438 28.539062 33.824219 C 28.714844 34 28.800781 34.214844 28.800781 34.464844 L 28.800781 46.753906 C 28.800781 47.003906 28.714844 47.214844 28.539062 47.390625 C 28.363281 47.566406 28.148438 47.65625 27.898438 47.65625 Z M 16.503906 45.851562 L 26.996094 45.851562 L 26.996094 35.367188 L 16.503906 35.367188 Z M 16.503906 45.851562 " fill-opacity="1" fill-rule="nonzero"/><path fill="#000000" d="M 24.84375 44.21875 C 24.617188 44.21875 24.417969 44.144531 24.25 43.996094 L 21.15625 41.285156 C 20.964844 41.125 20.863281 40.917969 20.84375 40.667969 C 20.828125 40.417969 20.902344 40.199219 21.066406 40.007812 C 21.230469 39.820312 21.4375 39.71875 21.6875 39.703125 C 21.9375 39.6875 22.15625 39.761719 22.34375 39.929688 L 24.804688 42.085938 L 33.144531 33.824219 C 33.324219 33.648438 33.535156 33.5625 33.785156 33.5625 C 34.035156 33.5625 34.246094 33.652344 34.421875 33.828125 C 34.597656 34.003906 34.683594 34.21875 34.683594 34.46875 C 34.683594 34.714844 34.59375 34.929688 34.417969 35.105469 L 25.480469 43.957031 C 25.304688 44.132812 25.089844 44.21875 24.84375 44.21875 Z M 24.84375 44.21875 " fill-opacity="1" fill-rule="nonzero"/><path fill="#000000" d="M 71.058594 38.496094 L 37.296875 38.496094 C 37.046875 38.496094 36.832031 38.40625 36.65625 38.230469 C 36.480469 38.054688 36.394531 37.84375 36.394531 37.59375 C 36.394531 37.34375 36.480469 37.132812 36.65625 36.957031 C 36.832031 36.777344 37.046875 36.691406 37.296875 36.691406 L 71.058594 36.691406 C 71.308594 36.691406 71.519531 36.777344 71.699219 36.957031 C 71.875 37.132812 71.960938 37.34375 71.960938 37.59375 C 71.960938 37.84375 71.875 38.054688 71.699219 38.230469 C 71.519531 38.40625 71.308594 38.496094 71.058594 38.496094 Z M 71.058594 38.496094 " fill-opacity="1" fill-rule="nonzero"/><path fill="#000000" d="M 61.890625 44.527344 L 37.296875 44.527344 C 37.046875 44.527344 36.832031 44.4375 36.65625 44.261719 C 36.480469 44.085938 36.394531 43.871094 36.394531 43.625 C 36.394531 43.375 36.480469 43.160156 36.65625 42.984375 C 36.832031 42.808594 37.046875 42.722656 37.296875 42.722656 L 61.890625 42.722656 C 62.140625 42.722656 62.355469 42.808594 62.53125 42.984375 C 62.707031 43.160156 62.796875 43.375 62.796875 43.625 C 62.796875 43.871094 62.707031 44.085938 62.53125 44.261719 C 62.355469 44.4375 62.140625 44.527344 61.890625 44.527344 Z M 61.890625 44.527344 " fill-opacity="1" fill-rule="nonzero"/><path fill="#9ccc65" d="M 15.601562 78.433594 L 27.898438 78.433594 L 27.898438 90.722656 L 15.601562 90.722656 Z M 15.601562 78.433594 " fill-opacity="1" fill-rule="nonzero"/><path fill="#000000" d="M 27.898438 91.625 L 15.601562 91.625 C 15.351562 91.625 15.140625 91.535156 14.960938 91.359375 C 14.785156 91.183594 14.699219 90.972656 14.699219 90.722656 L 14.699219 78.433594 C 14.699219 78.183594 14.785156 77.96875 14.960938 77.792969 C 15.140625 77.617188 15.351562 77.53125 15.601562 77.53125 L 27.898438 77.53125 C 28.148438 77.53125 28.363281 77.617188 28.539062 77.792969 C 28.714844 77.96875 28.800781 78.183594 28.800781 78.433594 L 28.800781 90.722656 C 28.800781 90.972656 28.714844 91.183594 28.539062 91.359375 C 28.363281 91.535156 28.148438 91.625 27.898438 91.625 Z M 16.503906 89.820312 L 26.996094 89.820312 L 26.996094 79.335938 L 16.503906 79.335938 Z M 16.503906 89.820312 " fill-opacity="1" fill-rule="nonzero"/><path fill="#000000" d="M 24.84375 88.1875 C 24.617188 88.1875 24.417969 88.113281 24.25 87.964844 L 21.15625 85.253906 C 20.96875 85.089844 20.867188 84.886719 20.855469 84.636719 C 20.839844 84.390625 20.914062 84.171875 21.074219 83.988281 C 21.238281 83.800781 21.445312 83.699219 21.691406 83.679688 C 21.941406 83.664062 22.15625 83.738281 22.34375 83.898438 L 24.804688 86.054688 L 33.144531 77.792969 C 33.324219 77.617188 33.535156 77.527344 33.785156 77.53125 C 34.035156 77.53125 34.246094 77.621094 34.421875 77.796875 C 34.597656 77.972656 34.683594 78.1875 34.683594 78.4375 C 34.683594 78.683594 34.59375 78.898438 34.417969 79.074219 L 25.480469 87.925781 C 25.304688 88.101562 25.089844 88.1875 24.84375 88.1875 Z M 24.84375 88.1875 " fill-opacity="1" fill-rule="nonzero"/><path fill="#000000" d="M 61.890625 82.464844 L 37.296875 82.464844 C 37.046875 82.464844 36.832031 82.375 36.65625 82.199219 C 36.480469 82.023438 36.394531 81.8125 36.394531 81.5625 C 36.394531 81.3125 36.480469 81.101562 36.65625 80.925781 C 36.832031 80.746094 37.046875 80.660156 37.296875 80.660156 L 61.890625 80.660156 C 62.140625 80.660156 62.355469 80.746094 62.53125 80.925781 C 62.707031 81.101562 62.796875 81.3125 62.796875 81.5625 C 62.796875 81.8125 62.707031 82.023438 62.53125 82.199219 C 62.355469 82.375 62.140625 82.464844 61.890625 82.464844 Z M 61.890625 82.464844 " fill-opacity="1" fill-rule="nonzero"/><path fill="#000000" d="M 51.734375 88.496094 L 37.296875 88.496094 C 37.046875 88.496094 36.832031 88.40625 36.65625 88.230469 C 36.480469 88.054688 36.394531 87.839844 36.394531 87.59375 C 36.394531 87.34375 36.480469 87.128906 36.65625 86.953125 C 36.832031 86.777344 37.046875 86.691406 37.296875 86.691406 L 51.734375 86.691406 C 51.980469 86.691406 52.195312 86.777344 52.371094 86.953125 C 52.546875 87.128906 52.636719 87.34375 52.636719 87.59375 C 52.636719 87.839844 52.546875 88.054688 52.371094 88.230469 C 52.195312 88.40625 51.980469 88.496094 51.734375 88.496094 Z M 51.734375 88.496094 " fill-opacity="1" fill-rule="nonzero"/><path fill="#9ccc65" d="M 15.601562 56.449219 L 27.898438 56.449219 L 27.898438 68.738281 L 15.601562 68.738281 Z M 15.601562 56.449219 " fill-opacity="1" fill-rule="nonzero"/><path fill="#000000" d="M 27.898438 69.640625 L 15.601562 69.640625 C 15.351562 69.640625 15.140625 69.550781 14.960938 69.375 C 14.785156 69.199219 14.699219 68.988281 14.699219 68.738281 L 14.699219 56.449219 C 14.699219 56.199219 14.785156 55.984375 14.960938 55.808594 C 15.140625 55.632812 15.351562 55.546875 15.601562 55.546875 L 27.898438 55.546875 C 28.148438 55.546875 28.363281 55.632812 28.539062 55.808594 C 28.714844 55.984375 28.800781 56.199219 28.800781 56.449219 L 28.800781 68.738281 C 28.800781 68.988281 28.714844 69.199219 28.539062 69.375 C 28.363281 69.550781 28.148438 69.640625 27.898438 69.640625 Z M 16.503906 67.835938 L 26.996094 67.835938 L 26.996094 57.351562 L 16.503906 57.351562 Z M 16.503906 67.835938 " fill-opacity="1" fill-rule="nonzero"/><path fill="#000000" d="M 24.84375 66.203125 C 24.617188 66.203125 24.417969 66.128906 24.25 65.980469 L 21.15625 63.269531 C 20.96875 63.105469 20.867188 62.902344 20.851562 62.652344 C 20.839844 62.40625 20.910156 62.1875 21.074219 62.003906 C 21.238281 61.816406 21.445312 61.714844 21.691406 61.695312 C 21.941406 61.679688 22.15625 61.753906 22.34375 61.914062 L 24.804688 64.070312 L 33.144531 55.808594 C 33.324219 55.632812 33.535156 55.542969 33.785156 55.546875 C 34.035156 55.546875 34.246094 55.636719 34.421875 55.8125 C 34.597656 55.988281 34.683594 56.203125 34.683594 56.453125 C 34.683594 56.699219 34.59375 56.914062 34.417969 57.089844 L 25.480469 65.941406 C 25.304688 66.117188 25.089844 66.203125 24.84375 66.203125 Z M 24.84375 66.203125 " fill-opacity="1" fill-rule="nonzero"/><path fill="#000000" d="M 71.058594 60.480469 L 37.296875 60.480469 C 37.046875 60.480469 36.832031 60.390625 36.65625 60.214844 C 36.480469 60.039062 36.394531 59.828125 36.394531 59.578125 C 36.394531 59.328125 36.480469 59.117188 36.65625 58.941406 C 36.832031 58.761719 37.046875 58.675781 37.296875 58.675781 L 71.058594 58.675781 C 71.308594 58.675781 71.519531 58.761719 71.699219 58.941406 C 71.875 59.117188 71.960938 59.328125 71.960938 59.578125 C 71.960938 59.828125 71.875 60.039062 71.699219 60.214844 C 71.519531 60.390625 71.308594 60.480469 71.058594 60.480469 Z M 71.058594 60.480469 " fill-opacity="1" fill-rule="nonzero"/><path fill="#000000" d="M 61.890625 66.511719 L 37.296875 66.511719 C 37.046875 66.511719 36.832031 66.421875 36.65625 66.246094 C 36.480469 66.070312 36.394531 65.855469 36.394531 65.609375 C 36.394531 65.359375 36.480469 65.144531 36.65625 64.96875 C 36.832031 64.792969 37.046875 64.707031 37.296875 64.707031 L 61.890625 64.707031 C 62.140625 64.707031 62.355469 64.792969 62.53125 64.96875 C 62.707031 65.144531 62.796875 65.359375 62.796875 65.609375 C 62.796875 65.855469 62.707031 66.070312 62.53125 66.246094 C 62.355469 66.421875 62.140625 66.511719 61.890625 66.511719 Z M 61.890625 66.511719 " fill-opacity="1" fill-rule="nonzero"/><path fill="#ffcb29" d="M 76.550781 88.496094 L 69.585938 83.019531 L 98.773438 45.96875 C 98.953125 45.738281 99.15625 45.53125 99.375 45.339844 C 99.597656 45.152344 99.835938 44.988281 100.085938 44.84375 C 100.339844 44.703125 100.605469 44.585938 100.882812 44.496094 C 101.160156 44.40625 101.441406 44.34375 101.730469 44.308594 C 102.019531 44.277344 102.308594 44.269531 102.601562 44.292969 C 102.890625 44.316406 103.175781 44.367188 103.453125 44.445312 C 103.734375 44.523438 104.003906 44.628906 104.265625 44.761719 C 104.523438 44.890625 104.765625 45.046875 104.996094 45.226562 C 105.222656 45.40625 105.433594 45.605469 105.621094 45.828125 C 105.8125 46.050781 105.976562 46.285156 106.121094 46.539062 C 106.261719 46.792969 106.378906 47.058594 106.46875 47.335938 C 106.558594 47.609375 106.621094 47.894531 106.65625 48.183594 C 106.6875 48.472656 106.695312 48.761719 106.671875 49.050781 C 106.648438 49.339844 106.597656 49.625 106.519531 49.90625 C 106.441406 50.183594 106.335938 50.453125 106.203125 50.714844 C 106.074219 50.972656 105.917969 51.214844 105.738281 51.445312 Z M 76.550781 88.496094 " fill-opacity="1" fill-rule="nonzero"/><path fill="#000000" d="M 76.546875 89.398438 C 76.339844 89.398438 76.152344 89.335938 75.992188 89.207031 L 69.027344 83.730469 C 68.832031 83.574219 68.71875 83.375 68.691406 83.128906 C 68.660156 82.878906 68.722656 82.660156 68.878906 82.460938 L 98.066406 45.410156 C 98.28125 45.132812 98.523438 44.882812 98.789062 44.65625 C 99.054688 44.429688 99.339844 44.230469 99.644531 44.058594 C 99.953125 43.886719 100.269531 43.746094 100.605469 43.636719 C 100.9375 43.53125 101.277344 43.457031 101.625 43.414062 C 101.972656 43.371094 102.320312 43.367188 102.671875 43.394531 C 103.019531 43.421875 103.363281 43.480469 103.699219 43.574219 C 104.035156 43.671875 104.363281 43.796875 104.671875 43.957031 C 104.984375 44.113281 105.28125 44.300781 105.554688 44.519531 C 105.828125 44.734375 106.082031 44.976562 106.308594 45.242188 C 106.535156 45.507812 106.734375 45.792969 106.90625 46.097656 C 107.078125 46.402344 107.21875 46.722656 107.328125 47.054688 C 107.433594 47.386719 107.511719 47.730469 107.550781 48.074219 C 107.59375 48.421875 107.601562 48.773438 107.574219 49.121094 C 107.546875 49.46875 107.484375 49.8125 107.390625 50.148438 C 107.292969 50.484375 107.167969 50.8125 107.007812 51.121094 C 106.851562 51.433594 106.664062 51.726562 106.445312 52.003906 L 77.257812 89.054688 C 77.078125 89.285156 76.839844 89.398438 76.546875 89.398438 Z M 70.855469 82.871094 L 76.398438 87.230469 L 105.027344 50.886719 C 105.316406 50.519531 105.527344 50.109375 105.652344 49.660156 C 105.78125 49.210938 105.816406 48.753906 105.761719 48.289062 C 105.707031 47.824219 105.5625 47.386719 105.335938 46.980469 C 105.105469 46.570312 104.808594 46.222656 104.441406 45.933594 C 104.070312 45.644531 103.664062 45.433594 103.210938 45.308594 C 102.761719 45.183594 102.304688 45.148438 101.839844 45.203125 C 101.375 45.257812 100.9375 45.402344 100.527344 45.628906 C 100.121094 45.859375 99.773438 46.15625 99.484375 46.527344 Z M 70.855469 82.871094 " fill-opacity="1" fill-rule="nonzero"/><path fill="#ef5451" d="M 104.507812 53.003906 L 97.546875 47.527344 L 98.773438 45.96875 C 98.953125 45.738281 99.15625 45.53125 99.375 45.339844 C 99.597656 45.152344 99.835938 44.988281 100.085938 44.84375 C 100.339844 44.703125 100.605469 44.585938 100.882812 44.496094 C 101.160156 44.40625 101.441406 44.34375 101.730469 44.308594 C 102.019531 44.277344 102.308594 44.269531 102.601562 44.292969 C 102.890625 44.316406 103.175781 44.367188 103.453125 44.445312 C 103.734375 44.523438 104.003906 44.628906 104.265625 44.761719 C 104.523438 44.890625 104.765625 45.046875 104.996094 45.226562 C 105.222656 45.40625 105.433594 45.605469 105.621094 45.828125 C 105.8125 46.050781 105.976562 46.285156 106.121094 46.539062 C 106.261719 46.792969 106.378906 47.058594 106.46875 47.335938 C 106.558594 47.609375 106.621094 47.894531 106.65625 48.183594 C 106.6875 48.472656 106.695312 48.761719 106.671875 49.050781 C 106.648438 49.339844 106.597656 49.625 106.519531 49.90625 C 106.441406 50.183594 106.335938 50.453125 106.203125 50.714844 C 106.074219 50.972656 105.917969 51.214844 105.738281 51.445312 Z M 104.507812 53.003906 " fill-opacity="1" fill-rule="nonzero"/><path fill="#000000" d="M 104.507812 53.90625 C 104.300781 53.90625 104.113281 53.84375 103.949219 53.714844 L 96.988281 48.234375 C 96.789062 48.082031 96.679688 47.882812 96.648438 47.632812 C 96.621094 47.386719 96.683594 47.164062 96.835938 46.96875 L 98.066406 45.410156 C 98.28125 45.136719 98.523438 44.882812 98.789062 44.65625 C 99.054688 44.429688 99.339844 44.230469 99.648438 44.058594 C 99.953125 43.886719 100.269531 43.75 100.605469 43.640625 C 100.9375 43.53125 101.277344 43.457031 101.625 43.417969 C 101.972656 43.375 102.320312 43.367188 102.671875 43.394531 C 103.019531 43.421875 103.363281 43.484375 103.699219 43.578125 C 104.035156 43.671875 104.359375 43.796875 104.671875 43.957031 C 104.984375 44.113281 105.277344 44.300781 105.554688 44.519531 C 105.828125 44.734375 106.082031 44.976562 106.308594 45.242188 C 106.535156 45.507812 106.734375 45.792969 106.90625 46.097656 C 107.078125 46.402344 107.21875 46.722656 107.328125 47.054688 C 107.433594 47.386719 107.511719 47.730469 107.550781 48.078125 C 107.59375 48.421875 107.601562 48.773438 107.574219 49.121094 C 107.546875 49.46875 107.484375 49.8125 107.390625 50.148438 C 107.292969 50.484375 107.167969 50.8125 107.007812 51.121094 C 106.851562 51.433594 106.664062 51.726562 106.445312 52.003906 L 105.21875 53.5625 C 105.0625 53.757812 104.863281 53.871094 104.613281 53.898438 C 104.578125 53.902344 104.542969 53.90625 104.507812 53.90625 Z M 98.8125 47.375 L 104.355469 51.738281 L 105.027344 50.886719 C 105.316406 50.519531 105.527344 50.109375 105.652344 49.660156 C 105.78125 49.210938 105.816406 48.753906 105.761719 48.289062 C 105.707031 47.824219 105.5625 47.386719 105.335938 46.980469 C 105.105469 46.570312 104.808594 46.222656 104.441406 45.933594 C 104.070312 45.644531 103.664062 45.433594 103.210938 45.308594 C 102.761719 45.183594 102.304688 45.148438 101.839844 45.203125 C 101.375 45.257812 100.9375 45.402344 100.527344 45.628906 C 100.121094 45.859375 99.773438 46.15625 99.484375 46.527344 Z M 98.8125 47.375 " fill-opacity="1" fill-rule="nonzero"/><path fill="#fbcbbd" d="M 67.207031 93.195312 L 76.550781 88.496094 L 69.585938 83.019531 Z M 67.207031 93.195312 " fill-opacity="1" fill-rule="nonzero"/><path fill="#000000" d="M 67.207031 94.097656 C 67.070312 94.097656 66.941406 94.070312 66.816406 94.007812 C 66.691406 93.949219 66.585938 93.863281 66.5 93.757812 C 66.414062 93.648438 66.359375 93.527344 66.328125 93.394531 C 66.296875 93.257812 66.296875 93.125 66.328125 92.992188 L 68.707031 82.816406 C 68.742188 82.664062 68.8125 82.53125 68.914062 82.417969 C 69.015625 82.304688 69.140625 82.21875 69.289062 82.167969 C 69.433594 82.117188 69.582031 82.105469 69.734375 82.128906 C 69.886719 82.15625 70.023438 82.214844 70.144531 82.3125 L 77.109375 87.789062 C 77.230469 87.882812 77.320312 88.003906 77.378906 88.144531 C 77.441406 88.285156 77.464844 88.433594 77.449219 88.589844 C 77.433594 88.742188 77.378906 88.882812 77.292969 89.007812 C 77.207031 89.136719 77.09375 89.234375 76.957031 89.304688 L 67.613281 94.003906 C 67.488281 94.066406 67.351562 94.097656 67.207031 94.097656 Z M 70.144531 84.605469 L 68.527344 91.523438 L 74.875 88.328125 Z M 70.144531 84.605469 " fill-opacity="1" fill-rule="nonzero"/></svg>